<mxfile modified="2023-03-12T06:39:21.807Z" host="app.diagrams.net" agent="5.0 (Windows NT 10.0; Win64; x64) AppleWebKit/537.36 (KHTML, like Gecko) Chrome/109.0.0.0 Safari/537.36" etag="4j1tFewd2V87SnjH-Evy" version="21.0.6" type="github">
  <diagram id="Ht1M8jgEwFfnCIfOTk4-" name="Page-1">
    <mxGraphModel dx="880" dy="1311" grid="1" gridSize="10" guides="1" tooltips="1" connect="1" arrows="1" fold="1" page="1" pageScale="1" pageWidth="1169" pageHeight="827" math="0" shadow="0">
      <root>
        <mxCell id="0" />
        <mxCell id="1" parent="0" />
        <mxCell id="UEzPUAAOIrF-is8g5C7q-175" value="AWS Cloud" style="points=[[0,0],[0.25,0],[0.5,0],[0.75,0],[1,0],[1,0.25],[1,0.5],[1,0.75],[1,1],[0.75,1],[0.5,1],[0.25,1],[0,1],[0,0.75],[0,0.5],[0,0.25]];outlineConnect=0;gradientColor=none;html=1;whiteSpace=wrap;fontSize=12;fontStyle=0;shape=mxgraph.aws4.group;grIcon=mxgraph.aws4.group_aws_cloud_alt;strokeColor=#232F3E;fillColor=none;verticalAlign=top;align=left;spacingLeft=30;fontColor=#232F3E;dashed=0;labelBackgroundColor=#ffffff;container=1;pointerEvents=0;collapsible=0;recursiveResize=0;" parent="1" vertex="1">
          <mxGeometry x="340" y="-718" width="700" height="278" as="geometry" />
        </mxCell>
        <mxCell id="5BPf2iVDKhnEHWOL0O9n-9" style="edgeStyle=orthogonalEdgeStyle;rounded=0;orthogonalLoop=1;jettySize=auto;html=1;strokeWidth=3;" parent="UEzPUAAOIrF-is8g5C7q-175" source="UEzPUAAOIrF-is8g5C7q-177" target="5BPf2iVDKhnEHWOL0O9n-6" edge="1">
          <mxGeometry relative="1" as="geometry" />
        </mxCell>
        <mxCell id="5BPf2iVDKhnEHWOL0O9n-12" style="edgeStyle=orthogonalEdgeStyle;rounded=0;orthogonalLoop=1;jettySize=auto;html=1;strokeWidth=3;" parent="UEzPUAAOIrF-is8g5C7q-175" source="5BPf2iVDKhnEHWOL0O9n-6" target="5BPf2iVDKhnEHWOL0O9n-11" edge="1">
          <mxGeometry relative="1" as="geometry" />
        </mxCell>
        <mxCell id="5BPf2iVDKhnEHWOL0O9n-15" style="edgeStyle=orthogonalEdgeStyle;rounded=0;orthogonalLoop=1;jettySize=auto;html=1;strokeWidth=3;" parent="UEzPUAAOIrF-is8g5C7q-175" source="5BPf2iVDKhnEHWOL0O9n-6" target="UEzPUAAOIrF-is8g5C7q-177" edge="1">
          <mxGeometry relative="1" as="geometry" />
        </mxCell>
        <mxCell id="5BPf2iVDKhnEHWOL0O9n-13" style="edgeStyle=orthogonalEdgeStyle;rounded=0;orthogonalLoop=1;jettySize=auto;html=1;strokeWidth=3;" parent="UEzPUAAOIrF-is8g5C7q-175" source="5BPf2iVDKhnEHWOL0O9n-11" target="5BPf2iVDKhnEHWOL0O9n-6" edge="1">
          <mxGeometry relative="1" as="geometry" />
        </mxCell>
        <mxCell id="5BPf2iVDKhnEHWOL0O9n-18" value="User interacts with&lt;br&gt;&lt;br&gt;angular front" style="text;strokeColor=none;align=center;fillColor=none;html=1;verticalAlign=middle;whiteSpace=wrap;rounded=0;fontSize=14;spacing=6;strokeWidth=3;" parent="UEzPUAAOIrF-is8g5C7q-175" vertex="1">
          <mxGeometry x="551.34" y="118" width="128.66" height="30" as="geometry" />
        </mxCell>
        <mxCell id="5BPf2iVDKhnEHWOL0O9n-20" value="" style="group" parent="UEzPUAAOIrF-is8g5C7q-175" vertex="1" connectable="0">
          <mxGeometry x="227.40000000000003" y="99" width="113.78" height="129" as="geometry" />
        </mxCell>
        <mxCell id="5BPf2iVDKhnEHWOL0O9n-6" value="" style="sketch=0;outlineConnect=0;fontColor=#232F3E;gradientColor=none;fillColor=#D45B07;strokeColor=none;dashed=0;verticalLabelPosition=bottom;verticalAlign=top;align=center;html=1;fontSize=12;fontStyle=0;aspect=fixed;pointerEvents=1;shape=mxgraph.aws4.application;" parent="5BPf2iVDKhnEHWOL0O9n-20" vertex="1">
          <mxGeometry x="29.279999999999944" width="45.21" height="70" as="geometry" />
        </mxCell>
        <mxCell id="5BPf2iVDKhnEHWOL0O9n-10" value="Nodejs API on Elastic Beanstalk" style="text;strokeColor=none;align=center;fillColor=none;html=1;verticalAlign=middle;whiteSpace=wrap;rounded=0;fontStyle=1;fontSize=14;" parent="5BPf2iVDKhnEHWOL0O9n-20" vertex="1">
          <mxGeometry x="-10" y="99" width="123.78" height="30" as="geometry" />
        </mxCell>
        <mxCell id="5BPf2iVDKhnEHWOL0O9n-24" value="" style="group" parent="UEzPUAAOIrF-is8g5C7q-175" vertex="1" connectable="0">
          <mxGeometry x="443.78" y="95" width="103.77999999999997" height="113" as="geometry" />
        </mxCell>
        <mxCell id="UEzPUAAOIrF-is8g5C7q-177" value="" style="outlineConnect=0;fontColor=#232F3E;gradientColor=none;fillColor=#277116;strokeColor=none;dashed=0;verticalLabelPosition=bottom;verticalAlign=top;align=center;html=1;fontSize=12;fontStyle=0;aspect=fixed;pointerEvents=1;shape=mxgraph.aws4.bucket;labelBackgroundColor=#ffffff;" parent="5BPf2iVDKhnEHWOL0O9n-24" vertex="1">
          <mxGeometry x="14.389999999999986" width="75" height="78" as="geometry" />
        </mxCell>
        <mxCell id="5BPf2iVDKhnEHWOL0O9n-22" value="Angular&amp;nbsp; App on S3 Bucket" style="text;strokeColor=none;align=center;fillColor=none;html=1;verticalAlign=middle;whiteSpace=wrap;rounded=0;fontStyle=1;fontSize=14;" parent="5BPf2iVDKhnEHWOL0O9n-24" vertex="1">
          <mxGeometry y="103" width="103.78" height="30" as="geometry" />
        </mxCell>
        <mxCell id="5BPf2iVDKhnEHWOL0O9n-26" value="Post request to backend" style="text;strokeColor=none;align=center;fillColor=none;html=1;verticalAlign=middle;whiteSpace=wrap;rounded=0;" parent="UEzPUAAOIrF-is8g5C7q-175" vertex="1">
          <mxGeometry x="316.61" y="95" width="103.78" height="30" as="geometry" />
        </mxCell>
        <mxCell id="5BPf2iVDKhnEHWOL0O9n-28" value="Get request to backend" style="text;strokeColor=none;align=center;fillColor=none;html=1;verticalAlign=middle;whiteSpace=wrap;rounded=0;" parent="UEzPUAAOIrF-is8g5C7q-175" vertex="1">
          <mxGeometry x="316.61" y="148" width="103.78" height="30" as="geometry" />
        </mxCell>
        <mxCell id="5BPf2iVDKhnEHWOL0O9n-29" value="Data stored on RDS" style="text;strokeColor=none;align=center;fillColor=none;html=1;verticalAlign=middle;whiteSpace=wrap;rounded=0;" parent="UEzPUAAOIrF-is8g5C7q-175" vertex="1">
          <mxGeometry x="123.78" y="101" width="110" height="30" as="geometry" />
        </mxCell>
        <mxCell id="5BPf2iVDKhnEHWOL0O9n-30" value="Data retrieved from RDS" style="text;strokeColor=none;align=center;fillColor=none;html=1;verticalAlign=middle;whiteSpace=wrap;rounded=0;" parent="UEzPUAAOIrF-is8g5C7q-175" vertex="1">
          <mxGeometry x="103.78" y="136.5" width="150" height="30" as="geometry" />
        </mxCell>
        <mxCell id="5BPf2iVDKhnEHWOL0O9n-21" value="" style="group" parent="UEzPUAAOIrF-is8g5C7q-175" vertex="1" connectable="0">
          <mxGeometry x="20.000000000000014" y="101" width="110" height="107" as="geometry" />
        </mxCell>
        <mxCell id="5BPf2iVDKhnEHWOL0O9n-11" value="" style="outlineConnect=0;dashed=0;verticalLabelPosition=bottom;verticalAlign=top;align=center;html=1;shape=mxgraph.aws3.rds_db_instance;fillColor=#2E73B8;gradientColor=none;" parent="5BPf2iVDKhnEHWOL0O9n-21" vertex="1">
          <mxGeometry x="27.139999999999986" width="49.5" height="66" as="geometry" />
        </mxCell>
        <mxCell id="5BPf2iVDKhnEHWOL0O9n-17" value="Udagram DB Instance on RDS" style="text;strokeColor=none;align=center;fillColor=none;html=1;verticalAlign=middle;whiteSpace=wrap;rounded=0;fontStyle=1;fontSize=14;" parent="5BPf2iVDKhnEHWOL0O9n-21" vertex="1">
          <mxGeometry x="-6.22" y="97" width="116.22" height="30" as="geometry" />
        </mxCell>
        <mxCell id="5BPf2iVDKhnEHWOL0O9n-4" style="edgeStyle=orthogonalEdgeStyle;rounded=0;orthogonalLoop=1;jettySize=auto;html=1;strokeWidth=3;" parent="1" source="5BPf2iVDKhnEHWOL0O9n-1" target="UEzPUAAOIrF-is8g5C7q-177" edge="1">
          <mxGeometry relative="1" as="geometry" />
        </mxCell>
        <mxCell id="5BPf2iVDKhnEHWOL0O9n-16" style="edgeStyle=orthogonalEdgeStyle;rounded=0;orthogonalLoop=1;jettySize=auto;html=1;entryX=0.02;entryY=0.5;entryDx=0;entryDy=0;entryPerimeter=0;strokeWidth=3;" parent="1" source="UEzPUAAOIrF-is8g5C7q-177" target="5BPf2iVDKhnEHWOL0O9n-1" edge="1">
          <mxGeometry relative="1" as="geometry" />
        </mxCell>
        <mxCell id="5BPf2iVDKhnEHWOL0O9n-19" value="" style="group;fontSize=14;" parent="1" vertex="1" connectable="0">
          <mxGeometry x="1085" y="-609" width="70" height="99" as="geometry" />
        </mxCell>
        <mxCell id="5BPf2iVDKhnEHWOL0O9n-1" value="" style="points=[[0.35,0,0],[0.98,0.51,0],[1,0.71,0],[0.67,1,0],[0,0.795,0],[0,0.65,0]];verticalLabelPosition=bottom;sketch=0;html=1;verticalAlign=top;aspect=fixed;align=center;pointerEvents=1;shape=mxgraph.cisco19.user;fillColor=#005073;strokeColor=none;" parent="5BPf2iVDKhnEHWOL0O9n-19" vertex="1">
          <mxGeometry x="10" width="50" height="50" as="geometry" />
        </mxCell>
        <mxCell id="5BPf2iVDKhnEHWOL0O9n-2" value="End User" style="text;strokeColor=none;align=center;fillColor=none;html=1;verticalAlign=middle;whiteSpace=wrap;rounded=0;fontSize=14;fontStyle=1" parent="5BPf2iVDKhnEHWOL0O9n-19" vertex="1">
          <mxGeometry x="-10" y="69" width="80" height="30" as="geometry" />
        </mxCell>
      </root>
    </mxGraphModel>
  </diagram>
</mxfile>
